<svg version="1.1" viewBox="0.0 0.0 2048.0 512.0" fill="none" stroke="none" stroke-linecap="square" stroke-miterlimit="10" xmlns:xlink="http://www.w3.org/1999/xlink" xmlns="http://www.w3.org/2000/svg"><clipPath id="p.0"><path d="m0 0l2048.0 0l0 512.0l-2048.0 0l0 -512.0z" clip-rule="nonzero"/></clipPath><g clip-path="url(#p.0)"><path fill="#000000" fill-opacity="0.0" d="m0 0l2048.0 0l0 512.0l-2048.0 0z" fill-rule="evenodd"/><path fill="#203864" d="m0 256.0l0 0c0 -141.38489 114.615105 -256.0 256.0 -256.0l1536.0 0c67.895386 0 133.01001 26.971352 181.01929 74.98067c48.0094 48.009308 74.98071 113.12392 74.98071 181.01933l0 0l0 0c0 141.38489 -114.61511 256.0 -256.0 256.0l-1536.0 0l0 0c-141.38489 0 -256.0 -114.61511 -256.0 -256.0z" fill-rule="evenodd"/><path fill="#000000" fill-opacity="0.0" d="m101.98425 64.88189l1844.0315 0l0 382.2362l-1844.0315 0z" fill-rule="evenodd"/><path fill="#ffffff" d="m740.6352 307.3125l-4.875 68.6875l-180.5 0l0 -11.5625q3.90625 -0.3125 11.3125 -1.125q7.40625 -0.828125 10.328125 -2.125q4.890625 -2.109375 7.078125 -6.171875q2.203125 -4.078125 2.203125 -10.421875l0 -165.375q0 -5.53125 -1.875 -9.75q-1.875 -4.234375 -7.40625 -6.84375q-3.734375 -1.953125 -10.5 -3.828125q-6.75 -1.875 -11.140625 -2.1875l0 -11.5625l97.484375 0l0 11.5625q-4.546875 0.15625 -11.796875 1.625q-7.234375 1.453125 -10.5 2.59375q-5.53125 1.953125 -7.5625 6.6875q-2.03125 4.71875 -2.03125 10.078125l0 155.10938q0 10.75 1.046875 16.6875q1.0625 5.9375 4.96875 9.1875q3.75 2.9375 11.15625 3.84375q7.40625 0.890625 20.75 0.890625q6.015625 0 12.515625 -0.328125q6.515625 -0.328125 12.375 -1.3125q5.703125 -0.96875 10.5 -2.671875q4.8125 -1.71875 7.078125 -4.328125q6.671875 -7.484375 15.546875 -22.703125q8.875 -15.21875 12.296875 -24.65625l11.546875 0zm89.51251 68.6875l-77.625 0l0 -10.734375q3.734375 -0.328125 7.71875 -0.65625q4.0 -0.328125 6.921875 -1.296875q4.5625 -1.46875 6.75 -5.125q2.203125 -3.671875 2.203125 -9.53125l0 -99.125q0 -5.203125 -2.359375 -9.515625q-2.359375 -4.3125 -6.59375 -7.25q-3.09375 -1.953125 -8.953125 -3.328125q-5.859375 -1.390625 -10.734375 -1.703125l0 -10.59375l56.640625 -3.578125l2.28125 2.28125l0 130.85938q0 5.703125 2.1875 9.453125q2.203125 3.734375 6.921875 5.515625q3.578125 1.46875 7.0 2.375q3.421875 0.890625 7.640625 1.21875l0 10.734375zm-20.5 -225.75q0 9.28125 -6.109375 16.203125q-6.09375 6.90625 -15.046875 6.90625q-8.296875 0 -14.40625 -6.578125q-6.109375 -6.59375 -6.109375 -15.0625q0 -8.953125 6.109375 -15.625q6.109375 -6.671875 14.40625 -6.671875q9.28125 0 15.21875 6.265625q5.9375 6.265625 5.9375 14.5625zm139.32654 218.75q-10.578125 4.390625 -20.03125 7.40625q-9.4375 3.015625 -23.109375 3.015625q-20.171875 0 -28.390625 -10.171875q-8.21875 -10.171875 -8.21875 -28.734375l0 -108.71875l-28.984375 0l0 -15.625l29.625 0l0 -49.96875l29.625 0l0 49.96875l46.0625 0l0 15.625l-45.734375 0l0 89.671875q0 10.09375 0.734375 16.859375q0.734375 6.75 3.5 11.796875q2.59375 4.71875 7.796875 7.15625q5.21875 2.4375 14.0 2.4375q4.078125 0 11.96875 -0.71875q7.890625 -0.734375 11.15625 -1.875l0 11.875zm158.52295 -30.765625q-10.09375 19.21875 -27.03125 30.609375q-16.921875 11.390625 -38.890625 11.390625q-19.359375 0 -33.9375 -6.828125q-14.5625 -6.84375 -24.0 -18.5625q-9.4375 -11.71875 -14.078125 -27.34375q-4.640625 -15.625 -4.640625 -33.046875q0 -15.625 4.953125 -30.671875q4.96875 -15.0625 14.578125 -27.109375q9.28125 -11.546875 23.03125 -18.625q13.75 -7.078125 30.84375 -7.078125q17.578125 0 30.109375 5.53125q12.53125 5.53125 20.34375 15.140625q7.484375 9.109375 11.140625 21.484375q3.671875 12.359375 3.671875 26.84375l0 10.75l-106.28125 0q0 15.78125 3.0 28.640625q3.015625 12.859375 9.53125 22.625q6.34375 9.4375 16.59375 14.890625q10.265625 5.453125 24.421875 5.453125q14.484375 0 24.984375 -6.75q10.5 -6.765625 20.265625 -24.34375l11.390625 7.0zm-35.96875 -61.1875q0 -9.125 -1.546875 -19.53125q-1.546875 -10.421875 -4.96875 -17.421875q-3.734375 -7.484375 -10.25 -12.203125q-6.515625 -4.71875 -16.765625 -4.71875q-17.09375 0 -28.40625 14.25q-11.3125 14.234375 -12.28125 39.625l74.21875 0zm177.396 -40.859375q0 8.296875 -4.0625 14.734375q-4.0625 6.421875 -12.53125 6.421875q-9.109375 0 -13.921875 -4.71875q-4.796875 -4.71875 -4.796875 -10.40625q0 -3.59375 0.5625 -6.515625q0.578125 -2.9375 1.0625 -5.859375q-7.640625 0 -17.90625 6.1875q-10.25 6.1875 -17.40625 17.578125l0 93.421875q0 5.6875 2.1875 9.28125q2.203125 3.578125 6.921875 5.359375q4.078125 1.640625 10.5 2.453125q6.421875 0.8125 11.15625 1.140625l0 10.734375l-84.640625 0l0 -10.734375q3.75 -0.328125 7.734375 -0.65625q3.984375 -0.328125 6.90625 -1.296875q4.5625 -1.46875 6.75 -5.125q2.203125 -3.671875 2.203125 -9.53125l0 -99.125q0 -5.046875 -2.359375 -9.921875q-2.359375 -4.890625 -6.59375 -7.8125q-3.078125 -1.953125 -7.3125 -2.84375q-4.234375 -0.90625 -9.125122 -1.21875l0 -10.59375l53.390747 -3.578125l2.28125 2.28125l0 22.625l0.8125 0q10.09375 -13.1875 22.453125 -20.015625q12.375 -6.84375 22.625 -6.84375q10.265625 0 16.6875 6.671875q6.421875 6.671875 6.421875 17.90625zm165.69434 136.89062q-7.65625 2.765625 -13.4375 4.46875q-5.765625 1.703125 -13.09375 1.703125q-12.6875 0 -20.265625 -5.9375q-7.5625 -5.9375 -9.6875 -17.328125l-0.96875 0q-10.578125 11.71875 -22.703125 17.90625q-12.125 6.171875 -29.21875 6.171875q-18.0625 0 -29.703125 -11.0625q-11.640625 -11.0625 -11.640625 -28.96875q0 -9.28125 2.609375 -16.59375q2.609375 -7.328125 7.8125 -13.1875q4.0625 -4.890625 10.734375 -8.703125q6.6875 -3.828125 12.546875 -6.109375q7.3125 -2.765625 29.6875 -10.25q22.390625 -7.5 30.203125 -11.71875l0 -16.125q0 -2.109375 -0.90625 -8.125q-0.890625 -6.03125 -3.8125 -11.40625q-3.265625 -6.015625 -9.203125 -10.484375q-5.9375 -4.484375 -16.84375 -4.484375q-7.484375 0 -13.921875 2.53125q-6.421875 2.515625 -9.03125 5.28125q0 3.25 1.546875 9.609375q1.546875 6.34375 1.546875 11.71875q0 5.6875 -5.125 10.40625q-5.125 4.71875 -14.234375 4.71875q-8.140625 0 -11.96875 -5.765625q-3.828125 -5.78125 -3.828125 -12.953125q0 -7.484375 5.28125 -14.3125q5.296875 -6.84375 13.765625 -12.203125q7.328125 -4.5625 17.734375 -7.734375q10.421875 -3.171875 20.359375 -3.171875q13.65625 0 23.828125 1.875q10.1875 1.859375 18.484375 8.046875q8.296875 6.015625 12.609375 16.359375q4.3125 10.328125 4.3125 26.609375q0 23.28125 -0.484375 41.265625q-0.484375 17.984375 -0.484375 39.296875q0 6.34375 2.1875 10.09375q2.203125 3.75 6.765625 6.34375q2.4375 1.46875 7.71875 1.640625q5.296875 0.15625 10.828125 0.15625l0 10.421875zm-56.796875 -85.9375q-13.84375 4.0625 -24.265625 7.96875q-10.40625 3.90625 -19.359375 9.765625q-8.140625 5.53125 -12.859375 13.109375q-4.71875 7.5625 -4.71875 17.984375q0 13.5 7.078125 19.859375q7.078125 6.34375 17.984375 6.34375q11.5625 0 20.34375 -5.609375q8.796875 -5.625 14.8125 -13.28125l0.984375 -56.140625zm128.57556 70.140625q0 9.109375 -6.59375 15.546875q-6.59375 6.421875 -15.703125 6.421875q-9.125 0 -15.71875 -6.421875q-6.578125 -6.4375 -6.578125 -15.546875q0 -9.109375 6.578125 -15.703125q6.59375 -6.59375 15.71875 -6.59375q9.109375 0 15.703125 6.59375q6.59375 6.59375 6.59375 15.703125z" fill-rule="nonzero"/></g></svg>